Coordinates
version=1
nRows=18
nColumns=22
inDegrees=yes

Units are S.I. units (second, meters, Newtons, ...)
If the header above contains a line with 'inDegrees', this indicates whether rotational values are in degrees (yes) or radians (no).

endheader
time	pelvis_tilt	pelvis_list	pelvis_rotation	pelvis_tx	pelvis_ty	pelvis_tz	hip_flexion_r	hip_adduction_r	hip_rotation_r	knee_angle_r	ankle_angle_r	subtalar_angle_r	hip_flexion_l	hip_adduction_l	hip_rotation_l	knee_angle_l	ankle_angle_l	subtalar_angle_l	lumbar_extension	lumbar_bending	lumbar_rotation
      1.25000000	     -5.80415188	     -1.99608184	     -6.72401780	     -1.15067201	      0.95137738	      0.43282220	     10.52717642	      5.91049547	      2.72880809	    -19.13625066	     14.86847323	     -2.14699713	      6.74136592	     -4.46260556	    -10.64048492	    -17.21114624	     14.72021353	     -3.16182847	     -2.48979615	      2.29729701	     -2.10900759
      1.26000000	     -5.72415016	     -2.22822500	     -6.90345290	     -1.14910619	      0.95105217	      0.43415663	     10.24335826	      6.24262620	      2.94109494	    -19.06024254	     14.94855600	     -2.16914893	      7.24281484	     -4.88700908	    -10.58573196	    -18.55348038	     15.05514754	     -3.11073542	     -2.62255394	      2.67024989	     -1.99727236
      1.27000000	     -5.70501173	     -2.47733185	     -7.07316048	     -1.14757251	      0.95055701	      0.43548473	     10.03313625	      6.59668300	      3.12428801	    -19.00147766	     15.06435375	     -2.24162473	      7.94332513	     -5.36134998	    -10.51431263	    -20.12355220	     15.37584304	     -2.84433546	     -2.70310337	      3.07166284	     -1.86844028
      1.28000000	     -5.59963171	     -2.77236407	     -7.25685361	     -1.14599567	      0.95012422	      0.43683480	      9.72078325	      6.98940858	      3.32155324	    -18.94361663	     15.14498125	     -2.28501408	      8.62975058	     -5.88680310	    -10.42422620	    -21.84504677	     15.68637975	     -2.72017854	     -2.90991146	      3.51308594	     -1.67938970
      1.29000000	     -5.55990459	     -3.05809724	     -7.41814632	     -1.14447053	      0.94952248	      0.43813712	      9.50241455	      7.37212512	      3.46806492	    -18.92135565	     15.27733572	     -2.39865413	      9.52805824	     -6.42932541	    -10.29747551	    -23.79293201	     15.90363535	     -2.35382743	     -3.05909605	      3.95131976	     -1.48589575
      1.30000000	     -5.40674914	     -3.37474972	     -7.58304921	     -1.14287846	      0.94906990	      0.43943014	      9.13782196	      7.77049504	      3.64632898	    -18.87155777	     15.35394674	     -2.44521484	     10.37455918	     -6.99624746	    -10.15040695	    -25.87184366	     15.99274910	     -2.21347782	     -3.36462609	      4.40428672	     -1.24487022
      1.31000000	     -5.32748964	     -3.64523150	     -7.71745496	     -1.14135299	      0.94846973	      0.44064274	      8.89768024	      8.11804940	      3.75247745	    -18.88359422	     15.49336897	     -2.56184370	     11.43899917	     -7.52788673	     -9.93396154	    -28.15573530	     15.90650151	     -1.85968666	     -3.59751684	      4.80737729	     -1.00126926
      1.32000000	     -5.17390647	     -3.90853269	     -7.84304935	     -1.13978288	      0.94801022	      0.44180181	      8.56682703	      8.44127150	      3.86982754	    -18.87806806	     15.60678235	     -2.63223636	     12.50101056	     -8.03814866	     -9.68629473	    -30.56270356	     15.61254441	     -1.63787075	     -3.93488700	      5.18504451	     -0.72875648
      1.33000000	     -4.99506873	     -4.14040634	     -7.95224971	     -1.13818076	      0.94763545	      0.44287406	      8.21136424	      8.71707660	      3.96879102	    -18.87045907	     15.72310770	     -2.67299793	     13.61920568	     -8.50146397	     -9.40409361	    -33.08500072	     15.08865140	     -1.46330124	     -4.31229047	      5.51781847	     -0.42887971
      1.34000000	     -4.76709905	     -4.33379247	     -8.04841136	     -1.13652769	      0.94741300	      0.44389286	      7.79325232	      8.94236092	      4.09829190	    -18.83930671	     15.81030613	     -2.67679524	     14.74792689	     -8.91177697	     -9.12677673	    -35.67829007	     14.32862156	     -1.33282143	     -4.75347639	      5.78721786	     -0.14255132
      1.35000000	     -4.59225819	     -4.46978742	     -8.13204435	     -1.13485663	      0.94716043	      0.44480328	      7.46619844	      9.09873309	      4.14521446	    -18.85141240	     15.96954753	     -2.67640887	     16.00649393	     -9.25607194	     -8.84419972	    -38.33444068	     13.39142801	     -1.23782182	     -5.13317154	      5.99472450	      0.18601768
      1.36000000	     -4.38030110	     -4.56780191	     -8.21906732	     -1.13309142	      0.94706831	      0.44566998	      7.08323600	      9.20773798	      4.23564754	    -18.83598635	     16.09210636	     -2.63786885	     17.24645354	     -9.55561644	     -8.62373061	    -40.96525843	     12.30619875	     -1.21192806	     -5.55434448	      6.14421667	      0.51442230
      1.37000000	     -4.16978313	     -4.62460596	     -8.31388197	     -1.13122557	      0.94705988	      0.44648724	      6.69679041	      9.26761026	      4.33698927	    -18.81223849	     16.20442804	     -2.56938784	     18.49624581	     -9.81621074	     -8.47809262	    -43.52892937	     11.15617351	     -1.25513874	     -5.96630261	      6.24032004	      0.85737560
      1.38000000	     -3.97061589	     -4.64362406	     -8.42019768	     -1.12923319	      0.94711760	      0.44726359	      6.31056800	      9.28237276	      4.44714917	    -18.77166581	     16.30692810	     -2.46912613	     19.74317940	    -10.04638276	     -8.41832597	    -45.96712075	     10.03202093	     -1.36319957	     -6.35125629	      6.28631131	      1.21838449
      1.39000000	     -3.78095464	     -4.63873508	     -8.53961967	     -1.12708769	      0.94723215	      0.44799523	      5.91739235	      9.26415784	      4.55822680	    -18.71242300	     16.39028196	     -2.34267472	     20.96598917	    -10.26815531	     -8.46397911	    -48.23336520	      9.03804156	     -1.49712943	     -6.71146486	      6.30236435	      1.59280075
      1.40000000	     -3.61025025	     -4.60875343	     -8.66858797	     -1.12477494	      0.94738441	      0.44868271	      5.52033573	      9.21240725	      4.67234211	    -18.62244846	     16.45701443	     -2.18565110	     22.15870508	    -10.47636014	     -8.60028386	    -50.27840450	      8.23158075	     -1.63851116	     -7.03055529	      6.28732959	      1.97077208
      1.41000000	     -3.45091311	     -4.55022624	     -8.79833900	     -1.12225962	      0.94759546	      0.44930806	      5.08536578	      9.11934086	      4.80288791	    -18.45746700	     16.49810193	     -2.02030810	     23.29547632	    -10.65654689	     -8.81331840	    -52.05317788	      7.62363232	     -1.73739274	     -7.31204855	      6.23834812	      2.34435606
      1.42000000	     -3.34143879	     -4.47856819	     -8.93342578	     -1.11959198	      0.94775256	      0.44988935	      4.69157116	      9.00681632	      4.89613073	    -18.28488176	     16.56781493	     -1.79045343	     24.42307825	    -10.83704758	     -9.10287855	    -53.55696754	      7.22816760	     -1.87588637	     -7.51985473	      6.17819582	      2.70988257
